<?xml version="1.0" standalone="no"?>
<!DOCTYPE svg PUBLIC "-//W3C//DTD SVG 20010904//EN"
 "http://www.w3.org/TR/2001/REC-SVG-20010904/DTD/svg10.dtd">
<svg version="1.0" xmlns="http://www.w3.org/2000/svg"
 width="128.000000pt" height="128.000000pt" viewBox="0 0 128.000000 128.000000"
 preserveAspectRatio="xMidYMid meet">
<metadata>
Created by potrace 1.11, written by Peter Selinger 2001-2013
</metadata>
<g transform="translate(0.000000,128.000000) scale(0.100000,-0.100000)"
fill="#000000" stroke="none">
<path d="M585 1188 c-185 -21 -331 -141 -410 -336 -33 -82 -45 -144 -52 -267
l-6 -100 -48 -45 c-27 -25 -49 -50 -49 -56 0 -5 14 -15 30 -23 30 -12 32 -11
76 29 145 133 420 138 698 11 87 -40 196 -71 249 -71 57 0 139 34 173 71 17
19 17 20 -9 46 l-26 27 -23 -21 c-13 -12 -36 -27 -52 -33 -26 -9 -31 -7 -62
26 -46 48 -62 82 -70 143 -5 43 -2 60 21 106 29 59 88 117 148 145 52 24 34
33 -67 33 -139 0 -239 -39 -329 -129 -45 -46 -107 -150 -107 -181 0 -29 -26
-5 -55 52 -27 53 -30 68 -30 154 0 84 3 102 26 146 54 103 196 180 339 185 32
1 33 2 17 14 -30 23 -178 67 -252 74 -38 4 -97 4 -130 0z"/>
<path d="M277 355 c-32 -8 -83 -27 -115 -42 -59 -29 -168 -125 -159 -140 3 -4
26 -19 50 -32 l45 -24 47 41 c74 65 138 85 280 88 149 3 259 -23 430 -101 172
-79 299 -73 403 19 l22 20 -41 42 -41 42 -42 -29 c-65 -46 -105 -42 -282 28
-133 54 -170 66 -224 78 -8 2 -34 8 -57 13 -64 15 -250 13 -316 -3z"/>
</g>
</svg>
